G04*
G04 #@! TF.GenerationSoftware,Altium Limited,Altium Designer,19.1.6 (110)*
G04*
G04 Layer_Physical_Order=1*
G04 Layer_Color=255*
%FSLAX25Y25*%
%MOIN*%
G70*
G01*
G75*
%ADD12C,0.00394*%
%ADD21P,0.09588X8X202.5*%
%ADD22C,0.09843*%
%ADD23C,0.07874*%
%ADD24R,0.05906X0.05906*%
%ADD25C,0.05906*%
%ADD26C,0.02953*%
G36*
X52010Y65133D02*
X53436Y64542D01*
X54719Y63685D01*
X55811Y62593D01*
X56668Y61310D01*
X57259Y59884D01*
X57560Y58370D01*
Y57598D01*
Y-57598D01*
Y-58370D01*
X57259Y-59884D01*
X56668Y-61310D01*
X55811Y-62593D01*
X54719Y-63685D01*
X53436Y-64542D01*
X52010Y-65133D01*
X50496Y-65434D01*
X-50496D01*
X-52010Y-65133D01*
X-53436Y-64542D01*
X-54719Y-63685D01*
X-55811Y-62593D01*
X-56668Y-61310D01*
X-57259Y-59884D01*
X-57560Y-58370D01*
Y-57598D01*
Y57598D01*
Y58370D01*
X-57259Y59884D01*
X-56668Y61310D01*
X-55811Y62593D01*
X-54719Y63685D01*
X-53436Y64542D01*
X-52010Y65133D01*
X-50496Y65434D01*
X50496D01*
X52010Y65133D01*
D02*
G37*
%LPC*%
G36*
X37402Y50239D02*
X36117Y50070D01*
X34920Y49574D01*
X33892Y48785D01*
X33103Y47758D01*
X32607Y46560D01*
X32438Y45276D01*
X32607Y43991D01*
X33103Y42794D01*
X33892Y41766D01*
X34920Y40977D01*
X36117Y40481D01*
X37402Y40312D01*
X38686Y40481D01*
X39883Y40977D01*
X40911Y41766D01*
X41700Y42794D01*
X42196Y43991D01*
X42365Y45276D01*
X42196Y46560D01*
X41700Y47758D01*
X40911Y48785D01*
X39883Y49574D01*
X38686Y50070D01*
X37402Y50239D01*
D02*
G37*
G36*
X-37402D02*
X-38686Y50070D01*
X-39883Y49574D01*
X-40911Y48785D01*
X-41700Y47758D01*
X-42196Y46560D01*
X-42365Y45276D01*
X-42196Y43991D01*
X-41700Y42794D01*
X-40911Y41766D01*
X-39883Y40977D01*
X-38686Y40481D01*
X-37402Y40312D01*
X-36117Y40481D01*
X-34920Y40977D01*
X-33892Y41766D01*
X-33103Y42794D01*
X-32607Y43991D01*
X-32438Y45276D01*
X-32607Y46560D01*
X-33103Y47758D01*
X-33892Y48785D01*
X-34920Y49574D01*
X-36117Y50070D01*
X-37402Y50239D01*
D02*
G37*
G36*
X0Y13971D02*
X-1028Y13836D01*
X-1986Y13439D01*
X-2808Y12808D01*
X-3439Y11986D01*
X-3836Y11028D01*
X-3971Y10000D01*
X-3836Y8972D01*
X-3439Y8015D01*
X-2808Y7192D01*
X-1986Y6561D01*
X-1028Y6164D01*
X0Y6029D01*
X1028Y6164D01*
X1986Y6561D01*
X2808Y7192D01*
X3439Y8015D01*
X3836Y8972D01*
X3971Y10000D01*
X3836Y11028D01*
X3439Y11986D01*
X2808Y12808D01*
X1986Y13439D01*
X1028Y13836D01*
X0Y13971D01*
D02*
G37*
G36*
Y3971D02*
X-1028Y3836D01*
X-1986Y3439D01*
X-2808Y2808D01*
X-3439Y1986D01*
X-3836Y1028D01*
X-3971Y0D01*
X-3836Y-1028D01*
X-3439Y-1986D01*
X-2808Y-2808D01*
X-1986Y-3439D01*
X-1028Y-3836D01*
X0Y-3971D01*
X1028Y-3836D01*
X1986Y-3439D01*
X2808Y-2808D01*
X3439Y-1986D01*
X3836Y-1028D01*
X3971Y0D01*
X3836Y1028D01*
X3439Y1986D01*
X2808Y2808D01*
X1986Y3439D01*
X1028Y3836D01*
X0Y3971D01*
D02*
G37*
G36*
X49951Y5413D02*
X44537D01*
X41831Y2707D01*
Y-2707D01*
X44537Y-5413D01*
X49951D01*
X52658Y-2707D01*
Y2707D01*
X49951Y5413D01*
D02*
G37*
G36*
X32234D02*
X26821D01*
X24114Y2707D01*
Y-2707D01*
X26821Y-5413D01*
X32234D01*
X34941Y-2707D01*
Y2707D01*
X32234Y5413D01*
D02*
G37*
G36*
X14518D02*
X9104D01*
X6398Y2707D01*
Y-2707D01*
X9104Y-5413D01*
X14518D01*
X17224Y-2707D01*
Y2707D01*
X14518Y5413D01*
D02*
G37*
G36*
X-9104D02*
X-14518D01*
X-17224Y2707D01*
Y-2707D01*
X-14518Y-5413D01*
X-9104D01*
X-6398Y-2707D01*
Y2707D01*
X-9104Y5413D01*
D02*
G37*
G36*
X0Y-6029D02*
X-1028Y-6164D01*
X-1986Y-6561D01*
X-2808Y-7192D01*
X-3439Y-8015D01*
X-3836Y-8972D01*
X-3971Y-10000D01*
X-3836Y-11028D01*
X-3439Y-11986D01*
X-2808Y-12808D01*
X-1986Y-13439D01*
X-1028Y-13836D01*
X0Y-13971D01*
X1028Y-13836D01*
X1986Y-13439D01*
X2808Y-12808D01*
X3439Y-11986D01*
X3836Y-11028D01*
X3971Y-10000D01*
X3836Y-8972D01*
X3439Y-8015D01*
X2808Y-7192D01*
X1986Y-6561D01*
X1028Y-6164D01*
X0Y-6029D01*
D02*
G37*
G36*
Y-16029D02*
X-1028Y-16164D01*
X-1986Y-16561D01*
X-2808Y-17192D01*
X-3439Y-18014D01*
X-3836Y-18972D01*
X-3971Y-20000D01*
X-3836Y-21028D01*
X-3439Y-21985D01*
X-2808Y-22808D01*
X-1986Y-23439D01*
X-1028Y-23836D01*
X0Y-23971D01*
X1028Y-23836D01*
X1986Y-23439D01*
X2808Y-22808D01*
X3439Y-21985D01*
X3836Y-21028D01*
X3971Y-20000D01*
X3836Y-18972D01*
X3439Y-18014D01*
X2808Y-17192D01*
X1986Y-16561D01*
X1028Y-16164D01*
X0Y-16029D01*
D02*
G37*
G36*
X37402Y-40312D02*
X36117Y-40481D01*
X34920Y-40977D01*
X33892Y-41766D01*
X33103Y-42794D01*
X32607Y-43991D01*
X32438Y-45276D01*
X32607Y-46560D01*
X33103Y-47758D01*
X33892Y-48785D01*
X34920Y-49574D01*
X36117Y-50070D01*
X37402Y-50239D01*
X38686Y-50070D01*
X39883Y-49574D01*
X40911Y-48785D01*
X41700Y-47758D01*
X42196Y-46560D01*
X42365Y-45276D01*
X42196Y-43991D01*
X41700Y-42794D01*
X40911Y-41766D01*
X39883Y-40977D01*
X38686Y-40481D01*
X37402Y-40312D01*
D02*
G37*
G36*
X-37402D02*
X-38686Y-40481D01*
X-39883Y-40977D01*
X-40911Y-41766D01*
X-41700Y-42794D01*
X-42196Y-43991D01*
X-42365Y-45276D01*
X-42196Y-46560D01*
X-41700Y-47758D01*
X-40911Y-48785D01*
X-39883Y-49574D01*
X-38686Y-50070D01*
X-37402Y-50239D01*
X-36117Y-50070D01*
X-34920Y-49574D01*
X-33892Y-48785D01*
X-33103Y-47758D01*
X-32607Y-46560D01*
X-32438Y-45276D01*
X-32607Y-43991D01*
X-33103Y-42794D01*
X-33892Y-41766D01*
X-34920Y-40977D01*
X-36117Y-40481D01*
X-37402Y-40312D01*
D02*
G37*
%LPD*%
D12*
X-49724Y67441D02*
G03*
X-59567Y57598I0J-9843D01*
G01*
Y-57598D02*
G03*
X-49724Y-67441I9843J0D01*
G01*
X49724D02*
G03*
X59567Y-57598I0J9843D01*
G01*
Y57598D02*
G03*
X49724Y67441I-9843J0D01*
G01*
X-49724D02*
X49724D01*
X59567Y-57598D02*
Y57598D01*
X-49724Y-67441D02*
X49724D01*
X-59567Y-57598D02*
Y57598D01*
D21*
X47244Y0D02*
D03*
X29528D02*
D03*
X11811D02*
D03*
X-11811D02*
D03*
X-47244D02*
D03*
D22*
X-49724Y-32953D02*
D03*
X-25079D02*
D03*
X-49724Y-57598D02*
D03*
X-25079D02*
D03*
X25079Y-32953D02*
D03*
X49724D02*
D03*
X25079Y-57598D02*
D03*
X49724D02*
D03*
X25079Y57598D02*
D03*
X49724D02*
D03*
X25079Y32953D02*
D03*
X49724D02*
D03*
X-49724Y57598D02*
D03*
X-25079D02*
D03*
X-49724Y32953D02*
D03*
X-25079D02*
D03*
D23*
X-37402Y-45276D02*
D03*
X37402D02*
D03*
Y45276D02*
D03*
X-37402D02*
D03*
D24*
X0Y20000D02*
D03*
D25*
Y10000D02*
D03*
Y0D02*
D03*
Y-10000D02*
D03*
Y-20000D02*
D03*
D26*
X-27559Y26083D02*
D03*
Y23130D02*
D03*
X-27559Y-26083D02*
D03*
Y-23130D02*
D03*
X27559D02*
D03*
Y-26083D02*
D03*
Y26083D02*
D03*
Y23130D02*
D03*
M02*
