G04*
G04 #@! TF.GenerationSoftware,Altium Limited,Altium Designer,19.1.6 (110)*
G04*
G04 Layer_Color=16711935*
%FSLAX25Y25*%
%MOIN*%
G70*
G01*
G75*
%ADD12C,0.00394*%
D12*
X-40846Y20495D02*
X-33957D01*
X-40846Y7109D02*
X-33957D01*
X-40846D02*
Y20495D01*
X-33957Y7109D02*
Y20495D01*
X-37402Y11833D02*
Y15770D01*
X-39370Y13802D02*
X-35433D01*
X-39862Y17739D02*
X-34941D01*
X-39862Y9865D02*
X-34941D01*
X-39862D02*
Y17739D01*
X-34941Y9865D02*
Y17739D01*
X-40847Y-20472D02*
X-33957D01*
X-40847Y-7086D02*
X-33957D01*
Y-20472D02*
Y-7086D01*
X-40847Y-20472D02*
Y-7086D01*
X-37402Y-15748D02*
Y-11811D01*
X-39370Y-13779D02*
X-35433D01*
X-39863Y-17716D02*
X-34941D01*
X-39863Y-9842D02*
X-34941D01*
Y-17716D02*
Y-9842D01*
X-39863Y-17716D02*
Y-9842D01*
X-40158Y21162D02*
Y28051D01*
X-26772Y21162D02*
Y28051D01*
X-40158Y21162D02*
X-26772D01*
X-40158Y28051D02*
X-26772D01*
X-35433Y24607D02*
X-31496D01*
X-33465Y22638D02*
Y26575D01*
X-37402Y22146D02*
Y27067D01*
X-29528Y22146D02*
Y27067D01*
X-37402Y22146D02*
X-29528D01*
X-37402Y27067D02*
X-29528D01*
X-40157Y-28051D02*
Y-21161D01*
X-26772Y-28051D02*
Y-21161D01*
X-40157Y-28051D02*
X-26772D01*
X-40157Y-21161D02*
X-26772D01*
X-35433Y-24606D02*
X-31496D01*
X-33465Y-26575D02*
Y-22638D01*
X-37402Y-27067D02*
Y-22146D01*
X-29528Y-27067D02*
Y-22146D01*
X-37402Y-27067D02*
X-29528D01*
X-37402Y-22146D02*
X-29528D01*
X33956Y-20517D02*
X40846D01*
X33956Y-7131D02*
X40846D01*
Y-20517D02*
Y-7131D01*
X33956Y-20517D02*
Y-7131D01*
X37401Y-15792D02*
Y-11855D01*
X35433Y-13824D02*
X39370D01*
X34941Y-17761D02*
X39862D01*
X34941Y-9887D02*
X39862D01*
Y-17761D02*
Y-9887D01*
X34941Y-17761D02*
Y-9887D01*
X40157Y-28051D02*
Y-21161D01*
X26772Y-28051D02*
Y-21161D01*
X40157D01*
X26772Y-28051D02*
X40157D01*
X31496Y-24606D02*
X35433D01*
X33465Y-26575D02*
Y-22638D01*
X37402Y-27067D02*
Y-22146D01*
X29528Y-27067D02*
Y-22146D01*
X37402D01*
X29528Y-27067D02*
X37402D01*
X40157Y21161D02*
Y28051D01*
X26772Y21161D02*
Y28051D01*
X40157D01*
X26772Y21161D02*
X40157D01*
X31496Y24606D02*
X35433D01*
X33465Y22638D02*
Y26575D01*
X37402Y22146D02*
Y27067D01*
X29528Y22146D02*
Y27067D01*
X37402D01*
X29528Y22146D02*
X37402D01*
X33957Y20472D02*
X40847D01*
X33957Y7086D02*
X40847D01*
X33957D02*
Y20472D01*
X40847Y7086D02*
Y20472D01*
X37402Y11811D02*
Y15748D01*
X35433Y13779D02*
X39370D01*
X34941Y17716D02*
X39863D01*
X34941Y9842D02*
X39863D01*
X34941D02*
Y17716D01*
X39863Y9842D02*
Y17716D01*
X-49724Y67441D02*
G03*
X-59567Y57598I0J-9843D01*
G01*
Y-57598D02*
G03*
X-49724Y-67441I9843J0D01*
G01*
X49724D02*
G03*
X59567Y-57598I0J9843D01*
G01*
Y57598D02*
G03*
X49724Y67441I-9843J0D01*
G01*
X-49724D02*
X49724D01*
X59567Y-57598D02*
Y57598D01*
X-49724Y-67441D02*
X49724D01*
X-59567Y-57598D02*
Y57598D01*
M02*
