G04*
G04 #@! TF.GenerationSoftware,Altium Limited,Altium Designer,19.1.6 (110)*
G04*
G04 Layer_Color=2752767*
%FSLAX25Y25*%
%MOIN*%
G70*
G01*
G75*
%ADD12C,0.00394*%
%ADD38C,0.00200*%
%ADD39C,0.00267*%
D12*
X-49724Y67441D02*
G03*
X-59567Y57598I0J-9843D01*
G01*
Y-57598D02*
G03*
X-49724Y-67441I9843J0D01*
G01*
X49724D02*
G03*
X59567Y-57598I0J9843D01*
G01*
Y57598D02*
G03*
X49724Y67441I-9843J0D01*
G01*
X-49724D02*
X49724D01*
X59567Y-57598D02*
Y57598D01*
X-49724Y-67441D02*
X49724D01*
X-59567Y-57598D02*
Y57598D01*
D38*
X46444Y-800D02*
Y800D01*
X48044D01*
Y-800D01*
X46444D01*
X28727D02*
Y800D01*
X30327D01*
Y-800D01*
X28727D01*
X11011D02*
Y800D01*
X12611D01*
Y-800D01*
X11011D01*
X-12611D02*
Y800D01*
X-11011D01*
Y-800D01*
X-12611D01*
X-48044D02*
Y800D01*
X-46444D01*
Y-800D01*
X-48044D01*
X-37402Y-46076D02*
X-38202Y-44476D01*
X-36602D01*
X-37402Y-46076D01*
X37402D02*
X36602Y-44476D01*
X38202D01*
X37402Y-46076D01*
Y44476D02*
X36602Y46076D01*
X38202D01*
X37402Y44476D01*
X-37402D02*
X-38202Y46076D01*
X-36602D01*
X-37402Y44476D01*
X0Y19200D02*
X400Y19600D01*
X800D01*
X400Y20000D01*
X800Y20400D01*
X400D01*
X0Y20800D01*
X-400Y20400D01*
X-800D01*
X-400Y20000D01*
X-800Y19600D01*
X-400D01*
X0Y19200D01*
Y9200D02*
X400Y9600D01*
X800D01*
X400Y10000D01*
X800Y10400D01*
X400D01*
X0Y10800D01*
X-400Y10400D01*
X-800D01*
X-400Y10000D01*
X-800Y9600D01*
X-400D01*
X0Y9200D01*
Y-800D02*
X400Y-400D01*
X800D01*
X400Y0D01*
X800Y400D01*
X400D01*
X0Y800D01*
X-400Y400D01*
X-800D01*
X-400Y0D01*
X-800Y-400D01*
X-400D01*
X0Y-800D01*
Y-10800D02*
X400Y-10400D01*
X800D01*
X400Y-10000D01*
X800Y-9600D01*
X400D01*
X0Y-9200D01*
X-400Y-9600D01*
X-800D01*
X-400Y-10000D01*
X-800Y-10400D01*
X-400D01*
X0Y-10800D01*
Y-20800D02*
X400Y-20400D01*
X800D01*
X400Y-20000D01*
X800Y-19600D01*
X400D01*
X0Y-19200D01*
X-400Y-19600D01*
X-800D01*
X-400Y-20000D01*
X-800Y-20400D01*
X-400D01*
X0Y-20800D01*
X-28359Y25283D02*
X-27959Y26083D01*
X-28359Y26883D01*
X-27559Y26483D01*
X-26759Y26883D01*
X-27159Y26083D01*
X-26759Y25283D01*
X-27559Y25683D01*
X-28359Y25283D01*
Y22330D02*
X-27959Y23130D01*
X-28359Y23930D01*
X-27559Y23530D01*
X-26759Y23930D01*
X-27159Y23130D01*
X-26759Y22330D01*
X-27559Y22730D01*
X-28359Y22330D01*
X-28359Y-26883D02*
X-27959Y-26083D01*
X-28359Y-25283D01*
X-27559Y-25683D01*
X-26759Y-25283D01*
X-27159Y-26083D01*
X-26759Y-26883D01*
X-27559Y-26483D01*
X-28359Y-26883D01*
Y-23930D02*
X-27959Y-23130D01*
X-28359Y-22330D01*
X-27559Y-22730D01*
X-26759Y-22330D01*
X-27159Y-23130D01*
X-26759Y-23930D01*
X-27559Y-23530D01*
X-28359Y-23930D01*
X26759D02*
X27159Y-23130D01*
X26759Y-22330D01*
X27559Y-22730D01*
X28359Y-22330D01*
X27959Y-23130D01*
X28359Y-23930D01*
X27559Y-23530D01*
X26759Y-23930D01*
Y-26883D02*
X27159Y-26083D01*
X26759Y-25283D01*
X27559Y-25683D01*
X28359Y-25283D01*
X27959Y-26083D01*
X28359Y-26883D01*
X27559Y-26483D01*
X26759Y-26883D01*
Y25283D02*
X27159Y26083D01*
X26759Y26883D01*
X27559Y26483D01*
X28359Y26883D01*
X27959Y26083D01*
X28359Y25283D01*
X27559Y25683D01*
X26759Y25283D01*
Y22330D02*
X27159Y23130D01*
X26759Y23930D01*
X27559Y23530D01*
X28359Y23930D01*
X27959Y23130D01*
X28359Y22330D01*
X27559Y22730D01*
X26759Y22330D01*
D39*
X-48924Y-32953D02*
G03*
X-48924Y-32953I-800J0D01*
G01*
X-24279D02*
G03*
X-24279Y-32953I-800J0D01*
G01*
X-48924Y-57598D02*
G03*
X-48924Y-57598I-800J0D01*
G01*
X-24279D02*
G03*
X-24279Y-57598I-800J0D01*
G01*
X25879Y-32953D02*
G03*
X25879Y-32953I-800J0D01*
G01*
X50524D02*
G03*
X50524Y-32953I-800J0D01*
G01*
X25879Y-57598D02*
G03*
X25879Y-57598I-800J0D01*
G01*
X50524D02*
G03*
X50524Y-57598I-800J0D01*
G01*
X25879Y57598D02*
G03*
X25879Y57598I-800J0D01*
G01*
X50524D02*
G03*
X50524Y57598I-800J0D01*
G01*
X25879Y32953D02*
G03*
X25879Y32953I-800J0D01*
G01*
X50524D02*
G03*
X50524Y32953I-800J0D01*
G01*
X-48924Y57598D02*
G03*
X-48924Y57598I-800J0D01*
G01*
X-24279D02*
G03*
X-24279Y57598I-800J0D01*
G01*
X-48924Y32953D02*
G03*
X-48924Y32953I-800J0D01*
G01*
X-24279D02*
G03*
X-24279Y32953I-800J0D01*
G01*
M02*
