G04*
G04 #@! TF.GenerationSoftware,Altium Limited,Altium Designer,19.1.6 (110)*
G04*
G04 Layer_Color=128*
%FSLAX25Y25*%
%MOIN*%
G70*
G01*
G75*
%ADD12C,0.00394*%
%ADD38C,0.00200*%
D12*
X-49724Y67441D02*
G03*
X-59567Y57598I0J-9843D01*
G01*
Y-57598D02*
G03*
X-49724Y-67441I9843J0D01*
G01*
X49724D02*
G03*
X59567Y-57598I0J9843D01*
G01*
Y57598D02*
G03*
X49724Y67441I-9843J0D01*
G01*
X-49724D02*
X49724D01*
X59567Y-57598D02*
Y57598D01*
X-49724Y-67441D02*
X49724D01*
X-59567Y-57598D02*
Y57598D01*
D38*
X44291Y0D02*
X50197D01*
X47244Y-2953D02*
Y2953D01*
X26575Y0D02*
X32480D01*
X29528Y-2953D02*
Y2953D01*
X8858Y0D02*
X14764D01*
X11811Y-2953D02*
Y2953D01*
X-14764Y0D02*
X-8858D01*
X-11811Y-2953D02*
Y2953D01*
X-50197Y0D02*
X-44291D01*
X-47244Y-2953D02*
Y2953D01*
X-52480Y-32953D02*
X-46968D01*
X-49724Y-35709D02*
Y-30197D01*
X-39567Y-45276D02*
X-35236D01*
X-37402Y-47441D02*
Y-43110D01*
X-27835Y-32953D02*
X-22323D01*
X-25079Y-35709D02*
Y-30197D01*
X-52480Y-57598D02*
X-46968D01*
X-49724Y-60354D02*
Y-54843D01*
X-27835Y-57598D02*
X-22323D01*
X-25079Y-60354D02*
Y-54843D01*
X22323Y-32953D02*
X27835D01*
X25079Y-35709D02*
Y-30197D01*
X35236Y-45276D02*
X39567D01*
X37402Y-47441D02*
Y-43110D01*
X46968Y-32953D02*
X52480D01*
X49724Y-35709D02*
Y-30197D01*
X22323Y-57598D02*
X27835D01*
X25079Y-60354D02*
Y-54843D01*
X46968Y-57598D02*
X52480D01*
X49724Y-60354D02*
Y-54843D01*
X22323Y57598D02*
X27835D01*
X25079Y54843D02*
Y60354D01*
X35236Y45276D02*
X39567D01*
X37402Y43110D02*
Y47441D01*
X46968Y57598D02*
X52480D01*
X49724Y54843D02*
Y60354D01*
X22323Y32953D02*
X27835D01*
X25079Y30197D02*
Y35709D01*
X46968Y32953D02*
X52480D01*
X49724Y30197D02*
Y35709D01*
X-52480Y57598D02*
X-46968D01*
X-49724Y54843D02*
Y60354D01*
X-39567Y45276D02*
X-35236D01*
X-37402Y43110D02*
Y47441D01*
X-27835Y57598D02*
X-22323D01*
X-25079Y54843D02*
Y60354D01*
X-52480Y32953D02*
X-46968D01*
X-49724Y30197D02*
Y35709D01*
X-27835Y32953D02*
X-22323D01*
X-25079Y30197D02*
Y35709D01*
X-1772Y20000D02*
X1772D01*
X0Y18228D02*
Y21772D01*
X-1772Y10000D02*
X1772D01*
X0Y8228D02*
Y11772D01*
X-1772Y0D02*
X1772D01*
X0Y-1772D02*
Y1772D01*
X-1772Y-10000D02*
X1772D01*
X0Y-11772D02*
Y-8228D01*
X-1772Y-20000D02*
X1772D01*
X0Y-21772D02*
Y-18228D01*
X-28150Y26083D02*
X-26969D01*
X-27559Y25492D02*
Y26673D01*
X-28150Y23130D02*
X-26969D01*
X-27559Y22540D02*
Y23721D01*
X-28149Y-26083D02*
X-26968D01*
X-27559Y-26673D02*
Y-25492D01*
X-28149Y-23130D02*
X-26968D01*
X-27559Y-23720D02*
Y-22539D01*
X26968Y-23130D02*
X28149D01*
X27559Y-23720D02*
Y-22539D01*
X26968Y-26083D02*
X28149D01*
X27559Y-26673D02*
Y-25492D01*
X26968Y26083D02*
X28149D01*
X27559Y25492D02*
Y26673D01*
X26968Y23130D02*
X28149D01*
X27559Y22539D02*
Y23720D01*
M02*
