G04*
G04 #@! TF.GenerationSoftware,Altium Limited,Altium Designer,19.1.6 (110)*
G04*
G04 Layer_Color=16711935*
%FSLAX25Y25*%
%MOIN*%
G70*
G01*
G75*
%ADD10C,0.01000*%
%ADD12C,0.00394*%
%ADD14C,0.01575*%
D10*
X-10856Y18019D02*
X-8857D01*
X-9856D01*
Y13021D01*
X-8857Y12021D01*
X-7857D01*
X-6858Y13021D01*
X-16854Y12021D02*
X-12855D01*
X-16854Y16020D01*
Y17020D01*
X-15855Y18019D01*
X-13855D01*
X-12855Y17020D01*
X12744Y18019D02*
X14743D01*
X13744D01*
Y13021D01*
X14743Y12021D01*
X15743D01*
X16743Y13021D01*
X10745Y17020D02*
X9745Y18019D01*
X7745D01*
X6746Y17020D01*
Y16020D01*
X7745Y15020D01*
X8745D01*
X7745D01*
X6746Y14021D01*
Y13021D01*
X7745Y12021D01*
X9745D01*
X10745Y13021D01*
X30444Y18019D02*
X32443D01*
X31444D01*
Y13021D01*
X32443Y12021D01*
X33443D01*
X34442Y13021D01*
X25445Y12021D02*
Y18019D01*
X28444Y15020D01*
X24446D01*
X48144Y18019D02*
X50143D01*
X49143D01*
Y13021D01*
X50143Y12021D01*
X51143D01*
X52143Y13021D01*
X42146Y18019D02*
X46145D01*
Y15020D01*
X44145Y16020D01*
X43145D01*
X42146Y15020D01*
Y13021D01*
X43145Y12021D01*
X45145D01*
X46145Y13021D01*
X-46356Y18019D02*
X-44357D01*
X-45357D01*
Y13021D01*
X-44357Y12021D01*
X-43357D01*
X-42358Y13021D01*
X-48355Y12021D02*
X-50355D01*
X-49355D01*
Y18019D01*
X-48355Y17020D01*
D12*
X-49724Y67441D02*
G03*
X-59567Y57598I0J-9843D01*
G01*
Y-57598D02*
G03*
X-49724Y-67441I9843J0D01*
G01*
X49724D02*
G03*
X59567Y-57598I0J9843D01*
G01*
Y57598D02*
G03*
X49724Y67441I-9843J0D01*
G01*
X-49724D02*
X49724D01*
X59567Y-57598D02*
Y57598D01*
X-49724Y-67441D02*
X49724D01*
X-59567Y-57598D02*
Y57598D01*
D14*
X-1310Y-29007D02*
X-3934D01*
X-2622D01*
Y-35567D01*
X-3934Y-36879D01*
X-5246D01*
X-6558Y-35567D01*
X6562Y-29007D02*
X3938Y-30319D01*
X1314Y-32943D01*
Y-35567D01*
X2626Y-36879D01*
X5250D01*
X6562Y-35567D01*
Y-34255D01*
X5250Y-32943D01*
X1314D01*
M02*
