G04*
G04 #@! TF.GenerationSoftware,Altium Limited,Altium Designer,19.1.6 (110)*
G04*
G04 Layer_Color=32896*
%FSLAX25Y25*%
%MOIN*%
G70*
G01*
G75*
%ADD11C,0.00787*%
%ADD12C,0.00394*%
%ADD13C,0.00984*%
%ADD36C,0.00800*%
%ADD37C,0.00799*%
D11*
X41732Y5512D02*
X52756D01*
X41732Y-5512D02*
Y5512D01*
Y-5512D02*
X52756D01*
X52756Y-5512D02*
Y5512D01*
X24016D02*
X35039D01*
X24016Y-5512D02*
Y5512D01*
Y-5512D02*
X35039D01*
X35039Y-5512D02*
Y5512D01*
X6299D02*
X17323D01*
X6299Y-5512D02*
Y5512D01*
Y-5512D02*
X17323D01*
X17323Y-5512D02*
Y5512D01*
X-17323D02*
X-6299D01*
X-17323Y-5512D02*
Y5512D01*
Y-5512D02*
X-6299D01*
X-6299Y-5512D02*
Y5512D01*
X-52756D02*
X-41732D01*
X-52756Y-5512D02*
Y5512D01*
Y-5512D02*
X-41732D01*
X-41732Y-5512D02*
Y5512D01*
X16399Y50609D02*
Y55529D01*
X13939D01*
X13119Y54709D01*
Y53069D01*
X13939Y52249D01*
X16399D01*
X14759D02*
X13119Y50609D01*
X11479Y55529D02*
X8200D01*
X9839D01*
Y50609D01*
X6560Y55529D02*
Y50609D01*
X4100D01*
X3280Y51429D01*
Y52249D01*
X4100Y53069D01*
X6560D01*
X4100D01*
X3280Y53889D01*
Y54709D01*
X4100Y55529D01*
X6560D01*
X-1640Y50609D02*
X1640D01*
X-1640Y53889D01*
Y54709D01*
X-820Y55529D01*
X820D01*
X1640Y54709D01*
X-3280D02*
X-4100Y55529D01*
X-5740D01*
X-6560Y54709D01*
Y51429D01*
X-5740Y50609D01*
X-4100D01*
X-3280Y51429D01*
Y54709D01*
X-8199D02*
X-9019Y55529D01*
X-10659D01*
X-11479Y54709D01*
Y51429D01*
X-10659Y50609D01*
X-9019D01*
X-8199Y51429D01*
Y54709D01*
X-13119D02*
X-13939Y55529D01*
X-15579D01*
X-16399Y54709D01*
Y51429D01*
X-15579Y50609D01*
X-13939D01*
X-13119Y51429D01*
Y54709D01*
X26648Y42816D02*
Y47735D01*
X24188D01*
X23368Y46916D01*
Y45276D01*
X24188Y44456D01*
X26648D01*
X20909Y46095D02*
X19269D01*
X18449Y45276D01*
Y42816D01*
X20909D01*
X21729Y43636D01*
X20909Y44456D01*
X18449D01*
X15989Y46916D02*
Y46095D01*
X16809D01*
X15169D01*
X15989D01*
Y43636D01*
X15169Y42816D01*
X11889Y46916D02*
Y46095D01*
X12709D01*
X11069D01*
X11889D01*
Y43636D01*
X11069Y42816D01*
X6150D02*
X7790D01*
X8609Y43636D01*
Y45276D01*
X7790Y46095D01*
X6150D01*
X5330Y45276D01*
Y44456D01*
X8609D01*
X3690Y46095D02*
Y42816D01*
Y44456D01*
X2870Y45276D01*
X2050Y46095D01*
X1230D01*
X-1230Y42816D02*
Y46095D01*
X-3690D01*
X-4510Y45276D01*
Y42816D01*
X-14349Y46916D02*
X-13529Y47735D01*
X-11889D01*
X-11069Y46916D01*
Y43636D01*
X-11889Y42816D01*
X-13529D01*
X-14349Y43636D01*
Y45276D01*
X-12709D01*
X-18449Y42816D02*
X-16809D01*
X-15989Y43636D01*
Y45276D01*
X-16809Y46095D01*
X-18449D01*
X-19269Y45276D01*
Y44456D01*
X-15989D01*
X-20909Y42816D02*
Y46095D01*
X-23368D01*
X-24188Y45276D01*
Y42816D01*
X-25828D02*
Y43636D01*
X-26648D01*
Y42816D01*
X-25828D01*
X18039Y39942D02*
Y35022D01*
X15579D01*
X14759Y35842D01*
Y36662D01*
X15579Y37482D01*
X18039D01*
X15579D01*
X14759Y38302D01*
Y39122D01*
X15579Y39942D01*
X18039D01*
X13119Y38302D02*
Y35022D01*
Y36662D01*
X12299Y37482D01*
X11479Y38302D01*
X10659D01*
X5740Y35022D02*
X7379D01*
X8200Y35842D01*
Y37482D01*
X7379Y38302D01*
X5740D01*
X4920Y37482D01*
Y36662D01*
X8200D01*
X2460Y38302D02*
X820D01*
X0Y37482D01*
Y35022D01*
X2460D01*
X3280Y35842D01*
X2460Y36662D01*
X0D01*
X-1640Y35022D02*
Y39942D01*
Y36662D02*
X-4100Y38302D01*
X-1640Y36662D02*
X-4100Y35022D01*
X-7379D02*
X-9019D01*
X-9839Y35842D01*
Y37482D01*
X-9019Y38302D01*
X-7379D01*
X-6560Y37482D01*
Y35842D01*
X-7379Y35022D01*
X-11479Y38302D02*
Y35842D01*
X-12299Y35022D01*
X-14759D01*
Y38302D01*
X-17219Y39122D02*
Y38302D01*
X-16399D01*
X-18039D01*
X-17219D01*
Y35842D01*
X-18039Y35022D01*
D12*
X-49724Y67441D02*
G03*
X-59567Y57598I0J-9843D01*
G01*
Y-57598D02*
G03*
X-49724Y-67441I9843J0D01*
G01*
X49724D02*
G03*
X59567Y-57598I0J9843D01*
G01*
Y57598D02*
G03*
X49724Y67441I-9843J0D01*
G01*
X-49724D02*
X49724D01*
X59567Y-57598D02*
Y57598D01*
X-49724Y-67441D02*
X49724D01*
X-59567Y-57598D02*
Y57598D01*
D13*
X47736Y8071D02*
G03*
X47736Y8071I-492J0D01*
G01*
X30020D02*
G03*
X30020Y8071I-492J0D01*
G01*
X12303D02*
G03*
X12303Y8071I-492J0D01*
G01*
X-11319D02*
G03*
X-11319Y8071I-492J0D01*
G01*
X-46752D02*
G03*
X-46752Y8071I-492J0D01*
G01*
D36*
X55642Y-27142D02*
Y-22143D01*
X53143D01*
X52310Y-22976D01*
Y-24643D01*
X53143Y-25476D01*
X55642D01*
X53976D02*
X52310Y-27142D01*
X50644D02*
X48978D01*
X49811D01*
Y-22143D01*
X50644Y-22976D01*
X43147Y-27142D02*
X46479D01*
X43147Y-23810D01*
Y-22976D01*
X43980Y-22143D01*
X45646D01*
X46479Y-22976D01*
X53943Y22084D02*
Y27083D01*
X51443D01*
X50610Y26250D01*
Y24583D01*
X51443Y23750D01*
X53943D01*
X52276D02*
X50610Y22084D01*
X48944D02*
X47278D01*
X48111D01*
Y27083D01*
X48944Y26250D01*
X44779Y22084D02*
X43113D01*
X43946D01*
Y27083D01*
X44779Y26250D01*
X52153Y-16342D02*
Y-11343D01*
X49654D01*
X48821Y-12176D01*
Y-13842D01*
X49654Y-14676D01*
X52153D01*
X50487D02*
X48821Y-16342D01*
X47155Y-12176D02*
X46322Y-11343D01*
X44656D01*
X43823Y-12176D01*
Y-13010D01*
X44656Y-13842D01*
X43823Y-14676D01*
Y-15509D01*
X44656Y-16342D01*
X46322D01*
X47155Y-15509D01*
Y-14676D01*
X46322Y-13842D01*
X47155Y-13010D01*
Y-12176D01*
X46322Y-13842D02*
X44656D01*
X52143Y11284D02*
Y16282D01*
X49644D01*
X48811Y15449D01*
Y13783D01*
X49644Y12950D01*
X52143D01*
X50477D02*
X48811Y11284D01*
X47144Y16282D02*
X43812D01*
Y15449D01*
X47144Y12117D01*
Y11284D01*
D37*
X-22658Y11321D02*
Y16320D01*
X-25157D01*
X-25990Y15487D01*
Y13820D01*
X-25157Y12987D01*
X-22658D01*
X-24324D02*
X-25990Y11321D01*
X-30988Y16320D02*
X-27656D01*
Y13820D01*
X-29322Y14653D01*
X-30155D01*
X-30988Y13820D01*
Y12154D01*
X-30155Y11321D01*
X-28489D01*
X-27656Y12154D01*
X-22658Y-16279D02*
Y-11280D01*
X-25157D01*
X-25990Y-12113D01*
Y-13780D01*
X-25157Y-14613D01*
X-22658D01*
X-24324D02*
X-25990Y-16279D01*
X-30988Y-11280D02*
X-29322Y-12113D01*
X-27656Y-13780D01*
Y-15446D01*
X-28489Y-16279D01*
X-30155D01*
X-30988Y-15446D01*
Y-14613D01*
X-30155Y-13780D01*
X-27656D01*
X-15458Y22121D02*
Y27120D01*
X-17957D01*
X-18790Y26287D01*
Y24620D01*
X-17957Y23787D01*
X-15458D01*
X-17124D02*
X-18790Y22121D01*
X-20456Y22954D02*
X-21289Y22121D01*
X-22955D01*
X-23788Y22954D01*
Y26287D01*
X-22955Y27120D01*
X-21289D01*
X-20456Y26287D01*
Y25453D01*
X-21289Y24620D01*
X-23788D01*
X-11258Y-27079D02*
Y-22080D01*
X-13757D01*
X-14590Y-22913D01*
Y-24580D01*
X-13757Y-25413D01*
X-11258D01*
X-12924D02*
X-14590Y-27079D01*
X-16256D02*
X-17922D01*
X-17089D01*
Y-22080D01*
X-16256Y-22913D01*
X-20421D02*
X-21254Y-22080D01*
X-22920D01*
X-23753Y-22913D01*
Y-26246D01*
X-22920Y-27079D01*
X-21254D01*
X-20421Y-26246D01*
Y-22913D01*
M02*
