M48
;Layer_Color=9474304
;FILE_FORMAT=2:5
INCH,TZ
;TYPE=PLATED
T1F00S00C0.01181
T2F00S00C0.03543
T3F00S00C0.04331
T4F00S00C0.05512
T5F00S00C0.05906
%
T01
X27559Y-26083
Y-23130
X-27559
Y-26083
X-27559Y23130
Y26083
X27559Y26083
Y23130
T02
X0Y-20000
Y-10000
Y0
Y10000
Y20000
T03
X37402Y-45276
X-37402
Y45276
X37402
T04
X25079Y-57598
Y-32953
X49724
Y-57598
X-25079
Y-32953
X-49724
Y-57598
Y32953
Y57598
X-25079
Y32953
X25079
Y57598
X49724
Y32953
T05
X-11811Y0
X11811
X29528
X47244
X-47244
M30
