G04*
G04 #@! TF.GenerationSoftware,Altium Limited,Altium Designer,19.1.6 (110)*
G04*
G04 Layer_Physical_Order=2*
G04 Layer_Color=16711680*
%FSLAX25Y25*%
%MOIN*%
G70*
G01*
G75*
%ADD12C,0.00394*%
%ADD21P,0.09588X8X202.5*%
%ADD22C,0.09843*%
%ADD23C,0.07874*%
%ADD24R,0.05906X0.05906*%
%ADD25C,0.05906*%
%ADD26C,0.02953*%
%ADD27R,0.04921X0.03543*%
%ADD28R,0.03543X0.04921*%
%ADD29C,0.07874*%
%ADD30C,0.02953*%
%ADD31C,0.04921*%
%ADD32C,0.01968*%
%ADD33C,0.05906*%
D12*
X-49724Y67441D02*
G03*
X-59567Y57598I0J-9843D01*
G01*
Y-57598D02*
G03*
X-49724Y-67441I9843J0D01*
G01*
X49724D02*
G03*
X59567Y-57598I0J9843D01*
G01*
Y57598D02*
G03*
X49724Y67441I-9843J0D01*
G01*
X-49724D02*
X49724D01*
X59567Y-57598D02*
Y57598D01*
X-49724Y-67441D02*
X49724D01*
X-59567Y-57598D02*
Y57598D01*
D21*
X47244Y0D02*
D03*
X29528D02*
D03*
X11811D02*
D03*
X-11811D02*
D03*
X-47244D02*
D03*
D22*
X-49724Y-32953D02*
D03*
X-25079D02*
D03*
X-49724Y-57598D02*
D03*
X-25079D02*
D03*
X25079Y-32953D02*
D03*
X49724D02*
D03*
X25079Y-57598D02*
D03*
X49724D02*
D03*
X25079Y57598D02*
D03*
X49724D02*
D03*
X25079Y32953D02*
D03*
X49724D02*
D03*
X-49724Y57598D02*
D03*
X-25079D02*
D03*
X-49724Y32953D02*
D03*
X-25079D02*
D03*
D23*
X-37402Y-45276D02*
D03*
X37402D02*
D03*
Y45276D02*
D03*
X-37402D02*
D03*
D24*
X0Y20000D02*
D03*
D25*
Y10000D02*
D03*
Y0D02*
D03*
Y-10000D02*
D03*
Y-20000D02*
D03*
D26*
X-27559Y26083D02*
D03*
Y23130D02*
D03*
X-27559Y-26083D02*
D03*
Y-23130D02*
D03*
X27559D02*
D03*
Y-26083D02*
D03*
Y26083D02*
D03*
Y23130D02*
D03*
D27*
X-37402Y17739D02*
D03*
Y9865D02*
D03*
X-37402Y-17716D02*
D03*
Y-9842D02*
D03*
X37401Y-17761D02*
D03*
Y-9887D02*
D03*
X37402Y17716D02*
D03*
Y9842D02*
D03*
D28*
X-37402Y24607D02*
D03*
X-29528D02*
D03*
X-37402Y-24606D02*
D03*
X-29528D02*
D03*
X37402D02*
D03*
X29528D02*
D03*
X37402Y24606D02*
D03*
X29528D02*
D03*
D29*
X-37402Y-45275D02*
Y-17716D01*
Y17739D02*
Y45276D01*
X37401Y-45275D02*
Y-17761D01*
X37402Y17716D02*
Y45275D01*
D30*
X27559Y23130D02*
Y26083D01*
Y-26083D02*
Y-23130D01*
X-27559Y23130D02*
Y26083D01*
X-27559Y-26083D02*
Y-23130D01*
D31*
X-37402Y9865D02*
X-27537Y0D01*
X37358Y-9887D02*
X47244Y0D01*
X37402Y7874D02*
Y9843D01*
X-27537Y0D02*
X-11811D01*
X-9843Y-9843D02*
X0Y0D01*
X-37402Y-9843D02*
X-9843D01*
X29528Y0D02*
X37402Y7874D01*
D32*
X31446Y-9887D02*
X37358D01*
X21332Y-20000D02*
X31446Y-9887D01*
X0Y-20000D02*
X21332D01*
X0Y0D02*
X11811D01*
X-6890Y4921D02*
X-5079D01*
X0Y10000D01*
X-11811Y0D02*
X-6890Y4921D01*
X0Y-10000D02*
X19528D01*
X29528Y0D01*
D33*
X37401Y-17761D02*
Y-17716D01*
X-37402Y17739D02*
X-37402Y17739D01*
M02*
